<svg xmlns="http://www.w3.org/2000/svg" width="24.251" height="16.504" viewBox="0 0 24.251 16.504">
  <g id="email" transform="translate(0.25 -83.25)">
    <path id="パス_893" data-name="パス 893" d="M23.4,83.5H.348A.348.348,0,0,0,0,83.848V99.156a.348.348,0,0,0,.348.348H23.4a.348.348,0,0,0,.348-.348V83.848A.348.348,0,0,0,23.4,83.5ZM.7,85.9a2.445,2.445,0,0,0,.392.326l4.14,2.749a.348.348,0,1,0,.385-.58l-4.14-2.749A1.736,1.736,0,0,1,.7,84.2h22.36a1.736,1.736,0,0,1-.777,1.449l-9.44,6.268a1.736,1.736,0,0,1-1.925,0l-4.14-2.749a.348.348,0,0,0-.385.58L9.036,91.5,1.088,96.78a2.445,2.445,0,0,0-.392.326Zm0,12.909a1.736,1.736,0,0,1,.777-1.449L9.665,91.92l.863.573a2.43,2.43,0,0,0,2.694,0l.863-.573,8.192,5.439a1.736,1.736,0,0,1,.777,1.449Zm22.36-1.7a2.444,2.444,0,0,0-.392-.325L14.715,91.5l7.948-5.277a2.445,2.445,0,0,0,.392-.326Z" fill="#fff" stroke="#fff" stroke-linecap="round" stroke-linejoin="round" stroke-width="0.5"/>
  </g>
</svg>
