<svg xmlns="http://www.w3.org/2000/svg" width="109.47" height="109.47" viewBox="0 0 109.47 109.47">
  <g id="グループ_356" data-name="グループ 356" transform="translate(-920.337 -1351.868)">
    <path id="パス_258" data-name="パス 258" d="M99.534,47.238a52.857,52.857,0,1,0,10.545,8.11A52.584,52.584,0,0,0,99.534,47.238Z" transform="translate(902.225 1314.305)" fill="#fbcc07"/>
    <path id="パス_259" data-name="パス 259" d="M94.376,7.5A54.717,54.717,0,1,0,105.3,15.9,54.692,54.692,0,0,0,94.376,7.5Zm4.2,20.092c.149.511.308,1.023.447,1.534.277,1,.528,2.01.774,3.014.091.372.194.746.279,1.117q.484,2.081.876,4.16c.03.166.053.33.083.5.221,1.21.423,2.42.6,3.629.066.464.115.929.176,1.395.117.908.23,1.816.321,2.722.055.544.092,1.087.138,1.629.068.827.13,1.655.176,2.48.032.576.053,1.151.072,1.727.017.451.023.9.032,1.351H68.622V26.4c.394-.008.791-.032,1.185-.045.506-.017,1.012-.034,1.517-.059.761-.036,1.523-.087,2.286-.142.5-.036.993-.068,1.489-.111.81-.07,1.621-.159,2.431-.251.444-.049.887-.091,1.331-.147,1.059-.134,2.118-.289,3.177-.457.2-.03.391-.055.587-.087q1.874-.309,3.748-.691c.393-.079.785-.174,1.176-.257.866-.185,1.733-.376,2.6-.583.47-.113.938-.238,1.406-.359.8-.2,1.591-.411,2.388-.634.479-.134.959-.277,1.438-.417.44-.13.88-.247,1.319-.383.179.508.36,1.015.532,1.523.191.562.383,1.123.562,1.685C98.07,25.859,98.327,26.724,98.58,27.59Zm3.865,32.135c-.045.808-.108,1.618-.172,2.425-.045.566-.087,1.132-.143,1.7-.087.864-.2,1.729-.306,2.6-.066.513-.121,1.025-.194,1.538-.157,1.087-.342,2.174-.536,3.263-.053.291-.092.583-.147.874q-.388,2.053-.866,4.109c-.106.453-.23.906-.342,1.361-.228.927-.459,1.853-.715,2.78-.153.555-.325,1.108-.487,1.663-.243.829-.489,1.659-.755,2.488-.187.583-.387,1.165-.585,1.748-.17.5-.347,1-.523,1.495-.423-.132-.846-.245-1.268-.372-.519-.155-1.038-.31-1.557-.457-.776-.219-1.551-.423-2.327-.623-.489-.126-.976-.259-1.465-.377-.87-.211-1.738-.4-2.607-.593-.389-.085-.78-.179-1.168-.259q-1.88-.385-3.752-.7c-.215-.036-.428-.062-.644-.1-1.036-.166-2.072-.321-3.107-.455-.451-.059-.9-.1-1.351-.153-.8-.091-1.593-.179-2.386-.251-.51-.045-1.017-.079-1.525-.117-.734-.053-1.467-.1-2.2-.14-.53-.026-1.059-.045-1.587-.062-.368-.011-.738-.036-1.106-.043V56.622h33.928c-.009.447-.015.9-.032,1.344C102.5,58.553,102.477,59.138,102.445,59.725ZM41.612,99.065Q40.607,97,39.671,94.852c-.159-.368-.308-.744-.462-1.114-.34-.806-.661-1.625-.981-2.444.362-.111.725-.226,1.087-.334.485-.143.97-.287,1.455-.423.753-.211,1.5-.41,2.257-.6.461-.119.919-.24,1.378-.351.827-.2,1.651-.383,2.474-.562.381-.083.763-.174,1.142-.251q1.806-.371,3.609-.674l.1-.015q1.75-.289,3.494-.51c.381-.049.763-.085,1.144-.128.813-.094,1.625-.183,2.435-.257.449-.04.9-.07,1.348-.1.742-.055,1.484-.1,2.223-.142q.7-.034,1.41-.057c.357-.011.713-.015,1.068-.023v18.8A50.937,50.937,0,0,1,41.612,99.065ZM34.97,81.874c-.155-.527-.319-1.055-.466-1.582-.276-.987-.525-1.974-.768-2.959-.1-.4-.211-.8-.3-1.2-.325-1.385-.623-2.769-.885-4.149-.045-.24-.079-.478-.123-.715-.21-1.138-.4-2.276-.57-3.411-.07-.479-.123-.955-.185-1.433-.117-.895-.232-1.791-.323-2.682-.055-.536-.094-1.07-.14-1.6-.07-.83-.134-1.661-.181-2.489-.032-.557-.051-1.114-.072-1.668-.017-.453-.023-.9-.034-1.357H64.848V83.069c-.364.008-.732.032-1.1.043-.528.017-1.057.036-1.587.062-.725.036-1.451.085-2.178.138-.511.038-1.023.072-1.534.117-.781.07-1.565.157-2.348.245-.461.053-.921.1-1.382.157-1.017.13-2.035.283-3.056.445-.226.036-.453.064-.679.1q-1.869.311-3.743.7c-.381.077-.763.17-1.144.253-.876.191-1.752.383-2.629.6-.476.115-.953.243-1.429.366-.783.2-1.568.408-2.352.629-.51.143-1.019.294-1.529.447-.427.126-.851.242-1.278.374-.185-.521-.372-1.042-.547-1.563-.193-.568-.389-1.136-.572-1.7C35.483,83.6,35.225,82.739,34.97,81.874ZM31.025,49.828c.045-.821.109-1.644.179-2.467.045-.54.085-1.078.14-1.618.089-.883.2-1.769.319-2.654.062-.483.115-.966.187-1.45.164-1.125.357-2.254.564-3.382.045-.245.077-.487.125-.732q.394-2.067.881-4.141c.091-.385.2-.772.293-1.159.247-1,.5-2,.776-3,.142-.511.3-1.025.453-1.536.259-.878.519-1.755.8-2.633.179-.557.37-1.114.559-1.67.177-.525.366-1.051.553-1.576.408.126.817.236,1.227.355.523.155,1.044.308,1.567.455.757.211,1.516.408,2.272.6.493.126.985.257,1.48.376.847.2,1.695.389,2.542.57.4.087.806.183,1.21.264q1.871.379,3.743.687c.157.026.311.043.468.068q1.645.263,3.292.472c.413.051.827.091,1.24.138.84.094,1.68.185,2.518.259.476.042.949.072,1.423.106.778.057,1.553.108,2.329.143.5.025,1,.042,1.495.057.394.013.791.038,1.185.045V52.848H30.919c.009-.449.017-.9.032-1.349C30.974,50.941,30.995,50.385,31.025,49.828ZM91.96,10.462c.672,1.372,1.325,2.773,1.948,4.2.16.366.308.744.462,1.114.34.806.661,1.627.985,2.448-.34.1-.679.211-1.021.313-.511.151-1.025.3-1.536.444-.712.2-1.425.385-2.138.568-.493.126-.983.255-1.476.374-.781.189-1.563.359-2.344.527-.419.091-.84.189-1.261.274q-1.738.351-3.478.642l-.279.045q-1.721.28-3.439.495c-.406.051-.81.089-1.214.134-.8.091-1.595.177-2.391.247-.474.042-.947.072-1.421.106-.725.053-1.45.1-2.174.136-.5.025-1.006.042-1.508.059-.353.011-.7.015-1.055.023V3.811A50.918,50.918,0,0,1,91.96,10.462Zm8.463,6.044c-.483.176-.961.353-1.448.521q-.51-1.3-1.049-2.582Q99.212,15.435,100.424,16.505Zm-35.576,6.1c-.351-.008-.7-.011-1.051-.023-.5-.015-1-.034-1.5-.059-.717-.034-1.434-.081-2.152-.134-.481-.034-.961-.066-1.442-.108-.778-.068-1.557-.153-2.335-.24-.419-.047-.838-.087-1.257-.14-1.134-.143-2.271-.3-3.407-.489l-.3-.047q-1.733-.286-3.469-.638c-.4-.081-.8-.176-1.208-.262-.8-.172-1.6-.347-2.4-.538-.466-.111-.93-.234-1.4-.353-.744-.189-1.485-.383-2.229-.591-.478-.132-.953-.272-1.431-.411-.359-.106-.717-.219-1.074-.328.323-.823.645-1.648.985-2.457.16-.379.311-.766.474-1.142.625-1.442,1.28-2.856,1.953-4.245A50.928,50.928,0,0,1,64.848,3.811Zm-30.28-5.53c-.394-.136-.791-.266-1.183-.406l-.268-.094c-.036-.013-.072-.028-.108-.04q1.294-1.141,2.669-2.2C35.3,15.247,34.926,16.162,34.568,17.079Zm-4.59,2.365c.294.113.6.215.9.325.581.215,1.163.428,1.752.636.208.074.41.153.619.225-.183.517-.344,1.034-.517,1.551-.2.6-.406,1.193-.6,1.789-.283.881-.545,1.761-.8,2.64-.166.562-.338,1.123-.495,1.685-.27.974-.513,1.946-.755,2.918-.115.462-.242.927-.349,1.389q-.5,2.143-.91,4.283c-.03.157-.051.313-.079.47q-.354,1.908-.634,3.807c-.07.483-.123.966-.185,1.45-.123.938-.242,1.876-.336,2.81-.057.555-.1,1.108-.142,1.661-.072.864-.14,1.727-.187,2.588-.032.574-.053,1.148-.074,1.719-.017.485-.053.974-.062,1.459H15.809A50.554,50.554,0,0,1,29.978,19.444ZM27.118,56.622c.009.487.043.976.062,1.463.021.576.042,1.151.074,1.729.047.861.115,1.723.187,2.586.047.557.087,1.114.143,1.67.094.938.215,1.878.338,2.82.062.483.115.964.185,1.448q.283,1.942.649,3.894c.025.13.042.259.066.389.272,1.433.581,2.869.917,4.307.1.438.225.878.332,1.316.247,1,.5,2,.78,3.007.151.544.319,1.089.479,1.635.264.9.534,1.8.825,2.7.189.585.389,1.17.589,1.755.179.527.342,1.053.528,1.58q-1.628.563-3.227,1.172a50.538,50.538,0,0,1-14.237-33.47Zm6.006,36.406c.5-.179.985-.362,1.485-.534q.518,1.325,1.068,2.633Q34.364,94.12,33.124,93.029Zm35.5-6.168c.357.008.712.011,1.068.023.478.017.957.034,1.436.059.723.036,1.45.085,2.176.138.47.034.94.066,1.412.109.781.07,1.565.157,2.348.247.411.047.823.087,1.236.14q1.656.212,3.32.487c.092.015.183.026.276.042q1.8.3,3.6.674c.389.079.779.174,1.168.257.823.179,1.646.362,2.469.562.455.111.91.232,1.365.349.764.2,1.527.4,2.291.615.472.132.946.272,1.417.413.374.111.747.23,1.119.345-.317.8-.632,1.608-.966,2.4-.159.376-.308.757-.47,1.127q-.926,2.123-1.929,4.16a50.9,50.9,0,0,1-23.336,6.651Zm30.321,5.662c.472.164.934.336,1.4.506q-1.178,1.036-2.418,2Q98.449,93.781,98.944,92.523Zm4.479-2.429c-1.036-.394-2.087-.776-3.144-1.144.187-.53.351-1.061.53-1.589.189-.561.381-1.121.561-1.682.294-.919.568-1.838.836-2.758.151-.517.31-1.034.453-1.551.285-1.029.542-2.059.795-3.088.1-.406.211-.813.306-1.219q.5-2.169.914-4.335c0-.008,0-.017,0-.025q.4-2.135.7-4.267c.066-.457.113-.912.172-1.368.126-.974.247-1.948.343-2.92.055-.549.092-1.1.138-1.644.072-.881.14-1.763.187-2.644.032-.578.051-1.155.072-1.731.019-.5.053-1,.062-1.5h11.309A50.539,50.539,0,0,1,103.423,90.094Zm2.929-37.246c-.009-.5-.043-1-.062-1.495-.021-.578-.04-1.155-.072-1.735-.047-.868-.113-1.738-.185-2.608-.045-.559-.085-1.117-.14-1.678-.092-.934-.209-1.869-.328-2.8-.064-.5-.115-.991-.187-1.487-.183-1.28-.4-2.561-.63-3.843-.026-.147-.045-.294-.074-.442-.266-1.421-.568-2.844-.9-4.266-.111-.485-.243-.97-.362-1.455-.232-.946-.466-1.891-.727-2.835-.157-.572-.332-1.142-.5-1.714-.253-.863-.508-1.723-.783-2.584-.191-.6-.394-1.2-.6-1.795-.17-.5-.325-1.008-.5-1.51.211-.074.417-.153.627-.228.557-.2,1.1-.4,1.655-.6.3-.111.606-.215.9-.328a50.559,50.559,0,0,1,14.171,33.4H106.352Z" transform="translate(908.337 1351.868)" fill="#322153"/>
  </g>
</svg>
