<svg xmlns="http://www.w3.org/2000/svg" width="118.14" height="118.14" viewBox="0 0 118.14 118.14">
  <g id="グループ_354" data-name="グループ 354" transform="translate(-248.309 -1348.86)">
    <path id="パス_266" data-name="パス 266" d="M160.449,213.474A40.731,40.731,0,0,0,184.889,176.2a40.517,40.517,0,0,0-48.881,0A40.734,40.734,0,0,0,160.449,213.474Z" transform="translate(146.93 1217.635)" fill="#fbcc07"/>
    <path id="パス_267" data-name="パス 267" d="M75.365,0a42.4,42.4,0,0,0-16.3,3.275A42.674,42.674,0,0,0,0,42.775,42.391,42.391,0,0,0,16.344,76.326a42.734,42.734,0,0,0,85.448.006A42.4,42.4,0,0,0,118.14,42.775,42.824,42.824,0,0,0,75.365,0Zm-12.7,9.612c.249.149.5.287.745.44.758.479,1.5.976,2.216,1.5.049.037.1.075.145.112q1,.739,1.945,1.536c.228.191.444.4.666.595.44.389.878.78,1.3,1.188.249.24.485.491.727.739.377.385.75.77,1.108,1.169.242.269.477.546.711.823.336.4.668.8.988,1.206.226.289.45.583.668.878.308.416.6.839.9,1.267.206.3.409.6.6.913.285.446.556.9.821,1.361.175.3.354.6.523.908.273.5.526,1.008.774,1.517.136.279.283.556.413.839.3.654.576,1.318.841,1.988.059.149.126.293.183.442q.471,1.24.858,2.516c.069.23.124.466.189.7.177.623.346,1.247.493,1.88.073.316.13.638.194.955.114.558.224,1.118.312,1.685.055.348.1.7.143,1.053.043.332.075.668.11,1-.636-.389-1.285-.743-1.935-1.1-.167-.092-.33-.194-.5-.283q-1.427-.749-2.9-1.383c-.261-.114-.53-.208-.794-.316-.723-.3-1.448-.578-2.186-.833-.363-.126-.731-.236-1.1-.35-.654-.206-1.31-.4-1.972-.574-.4-.1-.79-.2-1.19-.291-.658-.153-1.32-.285-1.986-.405-.4-.071-.788-.145-1.185-.206-.719-.11-1.442-.191-2.169-.263-.344-.035-.684-.079-1.031-.106-1.065-.077-2.143-.126-3.226-.126s-2.161.049-3.233.13c-.346.026-.688.071-1.033.106-.725.071-1.446.153-2.163.263-.4.061-.8.134-1.2.208-.66.12-1.316.253-1.968.4q-.6.141-1.208.3c-.654.171-1.3.363-1.945.566-.377.118-.754.232-1.126.361-.717.248-1.426.526-2.131.813-.281.114-.568.216-.849.338q-1.46.632-2.878,1.373c-.194.1-.381.22-.574.326-.629.344-1.261.686-1.876,1.063.035-.342.069-.684.114-1.025s.088-.707.143-1.057c.09-.568.2-1.13.314-1.691.063-.314.118-.629.191-.941.151-.658.328-1.308.513-1.955.059-.2.106-.413.167-.617.259-.849.544-1.691.86-2.518.065-.169.143-.334.208-.5.259-.65.526-1.3.819-1.931.128-.279.271-.55.405-.825.253-.515.509-1.029.784-1.532.163-.3.338-.591.509-.886.271-.466.548-.929.837-1.385.191-.3.389-.593.589-.886.3-.438.6-.87.917-1.3q.318-.431.648-.853c.328-.42.668-.829,1.012-1.234.228-.267.454-.536.688-.8.369-.409.752-.807,1.137-1.2.232-.236.46-.479.7-.711.436-.422.888-.827,1.344-1.228.208-.183.409-.375.621-.554.668-.564,1.357-1.11,2.065-1.63l.029-.022q1.082-.791,2.224-1.507c.238-.151.489-.285.731-.432.528-.318,1.057-.629,1.6-.923.31-.167.629-.318.943-.477q.526-.263,1.061-.511.535.247,1.059.509c.318.159.638.312.949.481C61.618,8.989,62.142,9.3,62.665,9.612Zm25.6,40.41c.748.855,1.462,1.733,2.129,2.644.081.112.157.228.238.34.66.923,1.283,1.872,1.856,2.846.033.055.069.11.1.165.576.992,1.1,2.012,1.579,3.051.079.169.159.336.236.507q.681,1.522,1.23,3.1c.063.181.122.365.181.548.356,1.084.678,2.179.939,3.3.02.086.035.173.053.261q.37,1.635.593,3.314c.02.145.045.287.063.434.139,1.122.22,2.257.263,3.4,0,.112.006.226.01.338q-.467.333-.943.652c-.391.263-.78.528-1.177.774-.483.3-.976.574-1.469.851-.4.222-.788.45-1.192.658-.511.265-1.035.5-1.556.743-.4.183-.794.377-1.2.546-.542.226-1.092.424-1.642.625-.4.147-.794.3-1.2.436-.57.187-1.151.342-1.729.5-.4.11-.786.234-1.185.33-.609.149-1.226.259-1.843.377-.379.071-.754.161-1.135.222-.684.11-1.377.179-2.069.251-.322.033-.64.086-.961.112q-1.528.128-3.076.128c-1.194,0-2.377-.073-3.554-.181-.334-.031-.668-.071-1-.11q-1.387-.165-2.756-.43c-.275-.053-.552-.1-.825-.155-1.027-.222-2.041-.5-3.049-.807.257-.149.5-.312.752-.464.3-.183.6-.367.9-.556.56-.358,1.106-.733,1.646-1.114.242-.173.493-.338.731-.515.764-.564,1.509-1.149,2.228-1.76.071-.061.136-.126.208-.187q.972-.834,1.89-1.725c.226-.218.44-.446.662-.67.448-.454.888-.915,1.316-1.387q.348-.385.684-.78c.405-.471.8-.951,1.179-1.438.206-.263.416-.523.615-.79.422-.564.825-1.141,1.22-1.723.132-.2.275-.387.4-.587q.767-1.179,1.458-2.406c.106-.187.2-.383.3-.572.346-.64.68-1.283.994-1.941.141-.3.271-.593.405-.89q.385-.859.735-1.731.192-.48.373-.965c.222-.6.428-1.206.623-1.817.1-.3.2-.595.285-.9q.351-1.185.631-2.4c.029-.122.065-.24.092-.363.208-.929.381-1.868.526-2.813.043-.283.073-.568.11-.853.063-.479.138-.953.185-1.436.043.041.09.077.132.118.837.778,1.632,1.591,2.389,2.43C88,49.714,88.132,49.867,88.267,50.022ZM50.912,80.6c-.271.059-.548.1-.821.153q-1.372.266-2.762.43c-.332.039-.664.079-1,.11-1.179.11-2.363.183-3.556.183q-1.546,0-3.074-.124c-.338-.026-.672-.081-1.008-.118-.676-.071-1.352-.139-2.019-.244-.4-.065-.8-.159-1.2-.234-.593-.114-1.188-.222-1.774-.363-.426-.1-.845-.234-1.267-.352-.55-.153-1.1-.3-1.642-.479-.434-.143-.858-.312-1.285-.468-.519-.191-1.039-.377-1.55-.591-.434-.181-.858-.387-1.285-.587-.491-.228-.984-.45-1.467-.7-.43-.222-.849-.464-1.271-.7-.466-.263-.933-.523-1.389-.807-.42-.261-.829-.54-1.243-.817-.3-.2-.6-.409-.9-.621,0-.106.006-.214.01-.32.041-1.151.124-2.294.263-3.424.018-.143.043-.285.063-.428.151-1.11.344-2.21.589-3.294.022-.1.037-.2.061-.291.257-1.1.574-2.19.927-3.261.065-.2.128-.4.2-.595q.541-1.555,1.212-3.055c.086-.189.175-.379.265-.566.477-1.018.986-2.021,1.55-2.994.049-.084.1-.161.151-.244.554-.941,1.155-1.856,1.79-2.748.094-.132.183-.269.279-.4.656-.9,1.361-1.762,2.1-2.605.147-.167.293-.334.444-.5.75-.829,1.534-1.632,2.361-2.4.047-.043.1-.086.145-.128.047.477.12.949.185,1.422.039.289.067.583.112.87.147.943.318,1.878.526,2.8.031.136.071.269.1.4q.278,1.189.621,2.357c.09.308.193.609.291.913.194.607.4,1.208.617,1.8.12.326.246.65.375.972q.348.871.733,1.725c.134.3.267.6.407.9.314.656.648,1.3.992,1.939.1.189.2.385.3.572q.691,1.228,1.46,2.41c.126.194.263.379.391.57.4.591.807,1.173,1.234,1.744.2.263.4.517.6.774q.581.739,1.194,1.452.333.388.674.768c.432.479.878.945,1.332,1.405.216.218.426.44.646.654q.932.9,1.919,1.752c.061.053.118.11.181.163.721.613,1.471,1.2,2.234,1.764.234.173.479.336.719.505.544.385,1.1.764,1.66,1.124.293.187.593.369.892.55.255.153.5.318.756.466C52.953,80.1,51.939,80.378,50.912,80.6ZM38.833,42.437c.468-.289.945-.556,1.422-.825.409-.23.817-.466,1.232-.68.5-.257,1.008-.489,1.517-.725.411-.189.817-.387,1.234-.562.53-.222,1.071-.416,1.609-.613.409-.151.815-.312,1.228-.448.562-.185,1.133-.338,1.7-.495.4-.112.8-.238,1.21-.336.6-.147,1.214-.257,1.823-.373.385-.073.766-.165,1.153-.226.68-.108,1.369-.177,2.057-.251.326-.035.646-.088.974-.114,1.016-.081,2.043-.124,3.074-.124s2.057.043,3.076.124c.324.026.64.079.961.112.693.073,1.385.143,2.069.251.381.061.756.151,1.135.222.617.118,1.234.23,1.843.377.4.1.79.22,1.185.33.578.161,1.159.316,1.729.5.4.132.8.291,1.2.436.55.2,1.1.4,1.642.625.4.169.8.363,1.2.546.521.24,1.043.479,1.556.743.4.208.794.436,1.192.658.493.277.986.554,1.469.851.4.246.786.511,1.177.774q.471.315.935.648c-.01.334-.02.666-.039,1-.022.413-.043.827-.077,1.236-.045.519-.108,1.033-.173,1.546-.051.4-.1.809-.163,1.21-.081.513-.183,1.02-.285,1.528-.079.393-.151.786-.242,1.175-.118.509-.259,1.01-.4,1.511-.1.379-.2.76-.318,1.133-.155.5-.334.994-.509,1.487-.128.363-.249.731-.389,1.09-.194.5-.411.984-.625,1.471-.149.342-.287.688-.446,1.025-.238.5-.5.99-.76,1.483-.163.31-.314.625-.485.931-.306.546-.642,1.075-.974,1.605-.147.234-.281.479-.434.709q-.739,1.124-1.556,2.2c-.179.234-.377.456-.562.688-.379.475-.754.951-1.155,1.407-.253.287-.523.556-.784.835-.356.383-.709.772-1.082,1.141-.289.285-.6.554-.894.831-.367.34-.729.686-1.11,1.014-.318.273-.654.53-.982.794-.383.308-.764.621-1.161.915-.342.255-.7.491-1.051.735-.4.279-.8.562-1.22.827-.363.232-.739.446-1.112.668-.426.253-.849.505-1.287.741-.381.206-.772.4-1.161.591-.31.155-.621.3-.935.45q-.474-.22-.937-.45c-.389-.193-.778-.383-1.159-.589-.44-.238-.868-.493-1.3-.746-.369-.218-.741-.432-1.1-.662-.42-.267-.825-.554-1.234-.835-.346-.24-.7-.475-1.037-.725-.4-.3-.788-.615-1.177-.929-.322-.259-.652-.511-.963-.78-.389-.334-.758-.686-1.13-1.033-.291-.271-.591-.534-.874-.813-.379-.375-.735-.768-1.1-1.159-.255-.273-.521-.538-.768-.819-.409-.466-.792-.951-1.177-1.436-.177-.222-.367-.434-.538-.66q-.816-1.072-1.556-2.2c-.161-.244-.3-.5-.458-.75-.324-.517-.65-1.033-.947-1.564-.179-.32-.338-.654-.509-.98-.248-.475-.5-.945-.731-1.43-.167-.354-.314-.719-.471-1.08-.206-.471-.416-.937-.6-1.416-.147-.377-.273-.762-.407-1.143-.167-.475-.34-.947-.489-1.43-.122-.4-.224-.8-.334-1.2-.132-.481-.267-.959-.381-1.446-.1-.409-.173-.823-.255-1.236-.1-.487-.2-.974-.275-1.465-.067-.422-.118-.845-.171-1.271-.061-.493-.124-.986-.167-1.483-.037-.43-.059-.864-.081-1.3q-.024-.48-.037-.959.446-.318.9-.621C38.012,42.97,38.418,42.693,38.833,42.437Zm-34.76.338a38.744,38.744,0,0,1,38.7-38.7A38.331,38.331,0,0,1,53.988,5.738c-.251.145-.489.308-.735.456-.35.212-.7.426-1.041.646-.493.318-.974.648-1.452.984-.332.234-.666.464-.99.707-.468.35-.921.715-1.373,1.084-.312.255-.629.5-.933.762-.446.385-.872.788-1.3,1.19-.287.269-.583.526-.862.8q-.969.959-1.874,1.978c-.411.462-.8.945-1.188,1.426-.2.251-.416.493-.615.75-.4.517-.782,1.053-1.161,1.589-.159.224-.322.446-.477.674-.391.574-.76,1.163-1.122,1.758-.116.189-.232.379-.344.57q-.565.962-1.08,1.953l-.208.4c-.367.725-.717,1.458-1.043,2.2l-.049.116a42.611,42.611,0,0,0-3.5,15.472c-.008.185-.026.367-.033.554-.108.086-.2.183-.31.271-1.008.809-1.982,1.648-2.9,2.53-.1.1-.2.2-.3.3q-1.35,1.32-2.573,2.742c-.081.094-.167.183-.246.279-.821.974-1.585,1.984-2.31,3.019-.126.181-.257.361-.381.544q-1.042,1.537-1.941,3.151c-.106.189-.206.381-.308.572-.6,1.114-1.157,2.249-1.652,3.412-.041.1-.075.2-.116.293q-.721,1.726-1.283,3.52c-.041.128-.088.255-.128.385-.367,1.2-.672,2.43-.931,3.668-.047.222-.094.442-.139.666q-.354,1.833-.552,3.711c-.01.09-.031.177-.039.267A38.331,38.331,0,0,1,4.074,42.775Zm55,71.291a38.752,38.752,0,0,1-38.5-34.77c.631.387,1.277.737,1.923,1.09.183.1.361.212.546.31q1.421.746,2.886,1.379c.271.116.546.214.819.326.715.291,1.432.572,2.161.825.367.126.737.236,1.108.354.65.206,1.3.4,1.964.572.4.1.794.2,1.194.293.658.153,1.32.285,1.984.405.393.071.786.145,1.183.206.719.108,1.444.191,2.171.263.344.035.684.079,1.031.106,1.069.075,2.147.124,3.231.124a43.03,43.03,0,0,0,4.3-.22c.475-.047.939-.145,1.41-.208.943-.128,1.888-.249,2.819-.44.554-.114,1.1-.277,1.646-.411.835-.206,1.672-.4,2.5-.66.574-.179,1.137-.405,1.707-.611.64-.23,1.287-.426,1.919-.686.633.261,1.281.458,1.923.688.568.2,1.128.43,1.7.609.825.257,1.664.454,2.5.66.548.134,1.092.3,1.644.411.929.189,1.872.312,2.813.438.473.063.939.161,1.416.21,1.424.143,2.858.22,4.3.22,1.086,0,2.161-.049,3.235-.13.346-.026.686-.071,1.031-.106.727-.073,1.45-.155,2.169-.263.4-.061.794-.134,1.19-.206.662-.12,1.32-.253,1.976-.4q.6-.141,1.2-.3c.654-.171,1.3-.365,1.947-.566.375-.118.752-.23,1.124-.361.719-.249,1.428-.526,2.133-.813.281-.114.566-.216.845-.336q1.46-.632,2.88-1.375c.187-.1.369-.214.556-.314.646-.35,1.291-.7,1.921-1.088A38.76,38.76,0,0,1,59.07,114.066Zm42.567-42.928c-.008-.092-.031-.179-.041-.269q-.2-1.87-.55-3.7-.067-.339-.141-.678c-.261-1.236-.562-2.459-.929-3.658-.041-.132-.09-.261-.13-.393-.375-1.185-.8-2.355-1.277-3.5-.043-.1-.079-.21-.124-.312-.495-1.159-1.051-2.291-1.648-3.4-.1-.194-.206-.387-.312-.578q-.9-1.613-1.939-3.147c-.124-.183-.253-.363-.381-.544-.725-1.035-1.489-2.047-2.31-3.021-.077-.092-.161-.177-.238-.269q-1.219-1.421-2.575-2.746c-.1-.1-.2-.206-.3-.306-.921-.884-1.9-1.723-2.9-2.534-.106-.086-.2-.181-.3-.265-.01-.471-.051-.935-.077-1.4-.02-.356-.031-.713-.059-1.067-.059-.739-.149-1.473-.244-2.2-.033-.251-.053-.5-.092-.754q-.223-1.47-.542-2.913c-.037-.167-.088-.328-.126-.495-.185-.788-.385-1.57-.615-2.342-.1-.322-.208-.636-.31-.953-.2-.611-.4-1.218-.621-1.819-.132-.352-.275-.7-.416-1.049-.224-.554-.454-1.106-.7-1.65-.161-.356-.33-.707-.5-1.057-.257-.528-.521-1.047-.8-1.562-.185-.344-.373-.688-.568-1.029-.293-.513-.6-1.016-.917-1.515-.2-.322-.4-.644-.613-.959-.346-.517-.709-1.023-1.078-1.524-.206-.279-.4-.564-.613-.839-.454-.589-.929-1.159-1.414-1.723-.147-.171-.283-.348-.432-.517q-.962-1.088-2-2.112c-.165-.171-.352-.328-.528-.5-.526-.5-1.059-1-1.611-1.473-.275-.236-.562-.458-.843-.688-.477-.389-.953-.774-1.448-1.143-.32-.238-.648-.466-.976-.7-.479-.338-.961-.668-1.456-.988-.35-.226-.7-.444-1.061-.66-.242-.147-.477-.306-.723-.448A38.355,38.355,0,0,1,75.365,4.074a38.744,38.744,0,0,1,38.7,38.7A38.307,38.307,0,0,1,101.637,71.138Z" transform="translate(248.309 1348.86)" fill="#322153"/>
  </g>
</svg>
