<svg xmlns="http://www.w3.org/2000/svg" width="133.832" height="115.373" viewBox="0 0 133.832 115.373">
  <g id="グループ_355" data-name="グループ 355" transform="translate(-572.668 -1355.234)">
    <g id="グループ_119" data-name="グループ 119" transform="translate(602.665 1367.001)">
      <path id="パス_260" data-name="パス 260" d="M131.689,163.689C131.689,136.192,104,136,104,136v55.379h46.149v-9.23C131.689,182.149,131.689,169.073,131.689,163.689Z" transform="translate(-104 -126.77)" fill="#fbcc07"/>
      <path id="パス_261" data-name="パス 261" d="M369.23,113.23c0,9.087-9.23,9.23-9.23,9.23v46.149h18.46V104S369.23,104.145,369.23,113.23Z" transform="translate(-286.162 -104)" fill="#fbcc07"/>
    </g>
    <g id="グループ_120" data-name="グループ 120" transform="translate(572.668 1355.234)">
      <path id="パス_262" data-name="パス 262" d="M122.295,32H11.537A11.55,11.55,0,0,0,0,43.537v73.838a11.55,11.55,0,0,0,11.537,11.537H55.379v1.218a6.89,6.89,0,0,1-3.826,6.191L38.2,143a2.307,2.307,0,0,0,1.031,4.37H94.605A2.308,2.308,0,0,0,95.639,143l-13.358-6.68a6.882,6.882,0,0,1-3.828-6.189v-1.218h43.842a11.55,11.55,0,0,0,11.537-11.537V43.537A11.55,11.55,0,0,0,122.295,32ZM78.453,105.838v-4.7a19.168,19.168,0,0,0,12.615-5.5c5.965-6.092,5.852-14.853,5.845-15.176V71.19a8.142,8.142,0,0,1,1.966-5.141,5.623,5.623,0,0,1,2.649-1.449v41.239Zm-73.838,0V80.424c0-.113-.072-11.313,7.257-18.746,3.879-3.934,9.2-6.11,15.818-6.519v50.679ZM32.3,55.236c6.3.711,23.075,4.543,23.075,25.22,0,4.94,0,19.579,18.46,20.7v4.682H32.3Zm73.838,8.856A10.419,10.419,0,0,0,110.8,62.1c.058-.039.111-.09.168-.132.143-.115.291-.231.427-.353a10.485,10.485,0,0,0,3.886-7.838c.044-.348.076-.685.09-1v-.023a8.7,8.7,0,0,1,.074-.946,7.85,7.85,0,0,1,1.133-3.214,6.459,6.459,0,0,1,3.41-2.363v59.606H106.145V64.092ZM124.6,45.845h4.615v59.994H124.6ZM4.615,43.537a6.931,6.931,0,0,1,6.922-6.922H122.295a6.913,6.913,0,0,1,6.5,4.615h-6.535c-.256,0-.528.018-.81.044a10.594,10.594,0,0,0-8.065,3.874c-.044.051-.085.106-.132.159-.067.088-.136.171-.2.258a10.878,10.878,0,0,0-2.236,6.069c-.035.362-.058.715-.058,1.036-.021.521-.277,3.983-2.88,5.84a8.469,8.469,0,0,1-3.731,1.161c-.069,0-.134.012-.205.014-.046,0-.1,0-.143,0-.007,0-.014,0-.021,0a11.061,11.061,0,0,0-8.187,3.12A12.8,12.8,0,0,0,92.3,71.227V80.5c0,.072.095,7.178-4.527,11.9-2.732,2.79-6.645,4.2-11.625,4.2-16.152,0-16.152-10.508-16.152-16.152,0-29.45-29.681-29.995-29.981-30H30c-8.988,0-16.191,2.684-21.411,7.979a26.7,26.7,0,0,0-3.971,5.189Zm75.6,96.913,4.615,2.307H49l4.615-2.307a11.478,11.478,0,0,0,6.378-10.319v-1.218H73.838v1.218A11.478,11.478,0,0,0,80.216,140.45ZM122.295,124.3H11.537a6.931,6.931,0,0,1-6.922-6.922v-6.922h124.6v6.922A6.931,6.931,0,0,1,122.295,124.3Z" transform="translate(0 -32)" fill="#322153"/>
      <path id="パス_263" data-name="パス 263" d="M224.669,320.74a2.364,2.364,0,0,0-.669,1.638,2.3,2.3,0,0,0,.185.877,2.7,2.7,0,0,0,.485.761,2.374,2.374,0,0,0,1.638.669,2.3,2.3,0,0,0,.877-.185,2.08,2.08,0,0,0,1.246-1.246,2.3,2.3,0,0,0,.185-.877,2.308,2.308,0,0,0-3.946-1.638Z" transform="translate(-159.391 -237.003)" fill="#322153"/>
    </g>
  </g>
</svg>
