<svg xmlns="http://www.w3.org/2000/svg" width="67.447" height="58.144" viewBox="0 0 67.447 58.144">
  <g id="グループ_360" data-name="グループ 360" transform="translate(-968 -3209)">
    <path id="パス_221" data-name="パス 221" d="M68.47,72H12.652A4.652,4.652,0,0,0,8,76.652V81.3H73.122V76.652A4.652,4.652,0,0,0,68.47,72Z" transform="translate(961.163 3137.814)" fill="#2a84ac"/>
    <g id="グループ_112" data-name="グループ 112" transform="translate(968 3209)">
      <path id="パス_222" data-name="パス 222" d="M67.447,42.466V37.814A5.821,5.821,0,0,0,61.633,32H5.814A5.821,5.821,0,0,0,0,37.814V75.027a5.821,5.821,0,0,0,5.814,5.814H27.909V84.33a5.814,5.814,0,1,0,11.629,0V80.841H61.633a5.821,5.821,0,0,0,5.814-5.814ZM2.326,37.814a3.493,3.493,0,0,1,3.489-3.489H61.633a3.493,3.493,0,0,1,3.489,3.489V41.3H2.326ZM34.887,83.167V62.235h2.326V83.167Zm-4.652,0V62.235h2.326V83.167Zm.719-23.258,2.77-5.54,2.77,5.54Zm2.77,27.909a3.484,3.484,0,0,1-3.275-2.326H37A3.481,3.481,0,0,1,33.724,87.819Zm27.909-9.3H39.538V61.072a1.151,1.151,0,0,0-.115-.488c0-.01,0-.022-.007-.031l-4.652-9.3a1.211,1.211,0,0,0-2.08,0l-4.652,9.3c0,.01,0,.022-.007.031a1.135,1.135,0,0,0-.116.488V78.515H5.814a3.493,3.493,0,0,1-3.489-3.489v-31.4h62.8v31.4A3.493,3.493,0,0,1,61.633,78.515Z" transform="translate(0 -32)" fill="#322153"/>
      <path id="パス_223" data-name="パス 223" d="M97.21,64H97.2a1.169,1.169,0,1,0,.013,0Z" transform="translate(-82.08 -59.348)" fill="#322153"/>
      <path id="パス_224" data-name="パス 224" d="M65.21,64H65.2a1.169,1.169,0,1,0,.013,0Z" transform="translate(-54.731 -59.348)" fill="#322153"/>
      <path id="パス_225" data-name="パス 225" d="M33.21,64H33.2a1.169,1.169,0,1,0,.013,0Z" transform="translate(-27.383 -59.348)" fill="#322153"/>
      <path id="パス_226" data-name="パス 226" d="M56.421,160H33.163a1.163,1.163,0,0,0,0,2.326H56.421a1.163,1.163,0,0,0,0-2.326Z" transform="translate(-27.348 -141.394)" fill="#322153"/>
      <path id="パス_227" data-name="パス 227" d="M88.981,128H33.163a1.163,1.163,0,1,0,0,2.326H88.981a1.163,1.163,0,1,0,0-2.326Z" transform="translate(-27.348 -114.045)" fill="#322153"/>
    </g>
  </g>
</svg>
