<svg xmlns="http://www.w3.org/2000/svg" width="58.144" height="58.144" viewBox="0 0 58.144 58.144">
  <g id="グループ_359" data-name="グループ 359" transform="translate(-734 -3209)">
    <path id="パス_200" data-name="パス 200" d="M148.03,192.06A12.03,12.03,0,1,0,136,180.03,12.03,12.03,0,0,0,148.03,192.06Zm-1-16.04,4.01,4.01-4.01,4.01Z" transform="translate(615.042 3058.052)" fill="#2a84ac"/>
    <g id="グループ_108" data-name="グループ 108" transform="translate(734 3209)">
      <path id="パス_201" data-name="パス 201" d="M57.142,2a1,1,0,0,0,0-2H1A1,1,0,0,0,1,2H4.01V8.227A5.492,5.492,0,0,0,0,13.506V44.64a5.492,5.492,0,0,0,4.01,5.278v6.221H1a1,1,0,1,0,0,2H57.142a1,1,0,0,0,0-2H54.134V49.917a5.492,5.492,0,0,0,4.01-5.278V13.506a5.492,5.492,0,0,0-4.01-5.278V2ZM38.095,8.02V2H44.11V8.02Zm-8.02,0V2H36.09V8.02Zm-8.02,0V2H28.07V8.02Zm-8.02,0V2H20.05V8.02ZM12.03,2V8.02H6.015V2ZM6.015,50.124H12.03v6.015H6.015Zm14.035,0v6.015H14.035V50.124Zm8.02,0v6.015H22.055V50.124Zm8.02,0v6.015H30.075V50.124Zm8.02,0v6.015H38.095V50.124Zm2,6.015V50.124h6.015v6.015ZM56.139,13.506V44.64a3.485,3.485,0,0,1-3.481,3.48H5.486A3.485,3.485,0,0,1,2,44.639V13.506a3.485,3.485,0,0,1,3.481-3.481H52.66A3.485,3.485,0,0,1,56.139,13.506ZM52.129,8.02H46.115V2h6.015Z" fill="#322153"/>
      <path id="パス_202" data-name="パス 202" d="M141.032,128a13.032,13.032,0,1,0,13.032,13.032A13.047,13.047,0,0,0,141.032,128Zm0,24.06a11.027,11.027,0,1,1,11.027-11.027A11.04,11.04,0,0,1,141.032,152.06Z" transform="translate(-111.96 -111.96)" fill="#322153"/>
      <path id="パス_203" data-name="パス 203" d="M217.711,192.292A1,1,0,0,0,216,193v8.02a1,1,0,0,0,.619.926.99.99,0,0,0,.384.076,1,1,0,0,0,.709-.294l4.01-4.01a1,1,0,0,0,0-1.418ZM218,198.6v-3.18l1.59,1.59Z" transform="translate(-188.933 -167.939)" fill="#322153"/>
    </g>
  </g>
</svg>
