<svg xmlns="http://www.w3.org/2000/svg" width="70.573" height="51.104" viewBox="0 0 70.573 51.104">
  <g id="グループ_358" data-name="グループ 358" transform="translate(-479 -3213)">
    <path id="パス_242" data-name="パス 242" d="M76.139,108.867A4.867,4.867,0,0,0,71.272,104H12.867A4.867,4.867,0,0,0,8,108.867v4.867H76.139Z" transform="translate(472.216 3110.084)" fill="#2a84ac"/>
    <g id="グループ_116" data-name="グループ 116" transform="translate(479 3213)">
      <path id="パス_243" data-name="パス 243" d="M6.084,115.1H64.489a6.091,6.091,0,0,0,6.084-6.084V70.084A6.091,6.091,0,0,0,64.489,64H6.084A6.091,6.091,0,0,0,0,70.084v38.937A6.091,6.091,0,0,0,6.084,115.1Zm58.405-2.434H6.084a3.655,3.655,0,0,1-3.65-3.65V76.168H68.139v32.853A3.655,3.655,0,0,1,64.489,112.671ZM2.434,70.084a3.655,3.655,0,0,1,3.65-3.65H64.489a3.655,3.655,0,0,1,3.65,3.65v3.65H2.434Z" transform="translate(0 -64)" fill="#322153"/>
      <path id="パス_244" data-name="パス 244" d="M170.569,235.4H168.5a17.283,17.283,0,0,0-1.572-4.25l1.548-1.778a3.849,3.849,0,0,0,.009-5.312l-3.433-3.548a3.649,3.649,0,0,0-2.611-1.1h0a3.546,3.546,0,0,0-2.479,1l-2.12,1.63a17.3,17.3,0,0,0-4.323-1.634V218.3c0-.191,0-.349.01-.479a1.791,1.791,0,0,0-.416-1.465,1.814,1.814,0,0,0-1.484-.428l-.428.006-5.3,0c-1.332-.022-3-.046-3.931.875a2.051,2.051,0,0,0-.619,1.5v2.271a29.484,29.484,0,0,0-2.8,1.349l-1.234-1.481a3.5,3.5,0,0,0-2.493-1.081h0a3.515,3.515,0,0,0-2.5,1.091L129,223.907a3.7,3.7,0,0,0,.047,5.181l1.544,1.547a24.638,24.638,0,0,0-1.73,4.816,1.216,1.216,0,0,0,2.358.6,20.3,20.3,0,0,1,1.924-5.02,1.217,1.217,0,0,0-.19-1.472l-2.177-2.184a1.258,1.258,0,0,1-.032-1.768l3.328-3.457a1.051,1.051,0,0,1,1.449-.077l1.818,2.188a1.216,1.216,0,0,0,1.561.268,26.7,26.7,0,0,1,4.1-2,1.213,1.213,0,0,0,.785-1.135v-2.9a8.506,8.506,0,0,1,2.079-.131l5.221,0V221.4a1.217,1.217,0,0,0,.989,1.195,15.12,15.12,0,0,1,5.243,1.954,1.214,1.214,0,0,0,1.366-.079L161.5,222.3a1.515,1.515,0,0,0,.125-.11,1.13,1.13,0,0,1,.812-.339,1.22,1.22,0,0,1,.871.366l3.433,3.548a1.467,1.467,0,0,1-.051,1.958l-2.16,2.476a1.219,1.219,0,0,0-.134,1.413,15.224,15.224,0,0,1,1.918,5.235,1.215,1.215,0,0,0,1.195.993h3.057c1.2,0,1.2.444,1.2.657a1.217,1.217,0,0,0,2.434,0C174.206,236.616,172.777,235.4,170.569,235.4Z" transform="translate(-108.499 -192.816)" fill="#322153"/>
      <path id="パス_245" data-name="パス 245" d="M218.994,307.393a10.819,10.819,0,0,0-15.429,0,11.164,11.164,0,0,0-1.731,2.28,1.217,1.217,0,0,0,2.112,1.209,8.637,8.637,0,0,1,1.351-1.78,8.382,8.382,0,0,1,11.963,0,8.566,8.566,0,0,1,1.351,1.78,1.216,1.216,0,0,0,2.112-1.207A10.91,10.91,0,0,0,218.994,307.393Z" transform="translate(-170.999 -267.632)" fill="#322153"/>
      <path id="パス_246" data-name="パス 246" d="M181.676,274.345a1.217,1.217,0,1,0,0-2.434,15.781,15.781,0,0,0-14.848,10.624,1.216,1.216,0,1,0,2.3.8A13.349,13.349,0,0,1,181.676,274.345Z" transform="translate(-141.396 -240.289)" fill="#322153"/>
      <path id="パス_247" data-name="パス 247" d="M33.217,162.434H57.552a1.217,1.217,0,1,0,0-2.434H33.217a1.217,1.217,0,1,0,0,2.434Z" transform="translate(-27.133 -145.399)" fill="#322153"/>
      <path id="パス_248" data-name="パス 248" d="M33.217,194.434h14.6a1.217,1.217,0,0,0,0-2.434h-14.6a1.217,1.217,0,0,0,0,2.434Z" transform="translate(-27.133 -172.532)" fill="#322153"/>
      <path id="パス_249" data-name="パス 249" d="M38.084,224H33.217a1.217,1.217,0,1,0,0,2.434h4.867a1.217,1.217,0,1,0,0-2.434Z" transform="translate(-27.133 -199.664)" fill="#322153"/>
      <path id="パス_250" data-name="パス 250" d="M38.084,320H33.217a1.217,1.217,0,1,0,0,2.434h4.867a1.217,1.217,0,1,0,0-2.434Z" transform="translate(-27.133 -281.063)" fill="#322153"/>
      <path id="パス_251" data-name="パス 251" d="M97.264,96h-.013a1.223,1.223,0,1,0,.013,0Z" transform="translate(-81.433 -91.133)" fill="#322153"/>
      <path id="パス_252" data-name="パス 252" d="M65.264,96h-.013a1.224,1.224,0,1,0,.013,0Z" transform="translate(-54.3 -91.133)" fill="#322153"/>
      <path id="パス_253" data-name="パス 253" d="M33.264,96h-.013a1.223,1.223,0,1,0,.013,0Z" transform="translate(-27.167 -91.133)" fill="#322153"/>
    </g>
  </g>
</svg>
