<svg xmlns="http://www.w3.org/2000/svg" width="58.145" height="50.125" viewBox="0 0 58.145 50.125">
  <g id="グループ_357" data-name="グループ 357" transform="translate(-229 -3213)">
    <path id="パス_240" data-name="パス 240" d="M76.01,160.062l40.1-4.01,4.01-20.05H72Z" transform="translate(166.022 3087.03)" fill="#2a84ac"/>
    <path id="パス_241" data-name="パス 241" d="M57.142,40.022H9.642L5.91,32.556a1,1,0,0,0-.9-.554H1a1,1,0,1,0,0,2h3.39l3.666,7.331L12.03,65.166V73.1a5.013,5.013,0,0,0,4.1,4.92,5.007,5.007,0,0,0,9.831.092H44.211a5.012,5.012,0,1,0,0-2H25.963a5.005,5.005,0,0,0-9.78-.14A3,3,0,0,1,14.035,73.1V65.991l39.2-3.92a1,1,0,0,0,.883-.8l4.01-20.05a1,1,0,0,0-.983-1.2Zm-8.02,34.085a3.007,3.007,0,1,1-3.007,3.007A3.011,3.011,0,0,1,49.122,74.107Zm-28.07,0a3.007,3.007,0,1,1-3.007,3.007A3.011,3.011,0,0,1,21.052,74.107Zm34.867-32.08-.4,2H10.54l-.334-2ZM13.866,63.993,10.874,46.037H55.117L53.109,56.076c-.03,0-.057-.011-.087-.008l-36.09,4.01a1,1,0,0,0,.109,2,1.049,1.049,0,0,0,.111-.006L52.7,58.121l-.406,2.029Z" transform="translate(229 3180.998)" fill="#322153"/>
  </g>
</svg>
